<svg version="1.2" xmlns="http://www.w3.org/2000/svg" viewBox="0 0 48 48" width="64" height="64"><style>.a{fill:#03a9f4}</style><path class="a" d="m42 12.4q-2 0.9-4.2 1.2c1.5-0.9 2.7-2.4 3.2-4.1-1.4 0.9-3 1.5-4.7 1.8-1.3-1.4-3.3-2.3-5.4-2.3-4.1 0-7.4 3.3-7.4 7.3q0 0.9 0.2 1.7c-6.1-0.3-11.6-3.2-15.2-7.7-0.6 1.1-1 2.4-1 3.7 0 2.6 1.3 4.8 3.3 6.1-1.2 0-2.4-0.4-3.4-0.9q0 0 0 0.1c0 3.5 2.6 6.5 6 7.2q-1 0.2-2 0.2-0.7 0-1.4-0.1c1 2.9 3.7 5 6.9 5.1-2.5 1.9-5.7 3.1-9.1 3.1q-0.9 0-1.8-0.1c3.3 2.1 7.2 3.3 11.3 3.3 13.6 0 21-11.2 21-20.8q0-0.5 0-1c1.5-1 2.7-2.3 3.7-3.8z"/></svg>